<svg id="svg" version="1.1" xmlns="http://www.w3.org/2000/svg" xmlns:xlink="http://www.w3.org/1999/xlink" width="400" height="132.26571767497035" viewBox="0, 0, 400,132.26571767497035"><g id="svgg"><path id="path0" d="M243.100 14.774 C 243.824 15.291,244.877 16.078,245.440 16.524 L 246.464 17.333 277.840 17.333 L 309.216 17.333 307.399 15.589 L 305.583 13.845 273.683 13.839 L 241.784 13.833 243.100 14.774 M308.833 15.583 L 310.577 17.333 314.161 17.333 L 317.744 17.333 316.000 15.583 L 314.256 13.833 310.673 13.833 L 307.089 13.833 308.833 15.583 M318.333 15.583 L 320.077 17.333 322.911 17.333 L 325.744 17.333 324.000 15.583 L 322.256 13.833 319.423 13.833 L 316.589 13.833 318.333 15.583 M327.748 15.592 L 329.579 17.333 331.662 17.333 L 333.744 17.333 332.000 15.583 L 330.256 13.833 328.086 13.842 L 325.917 13.850 327.748 15.592 M337.167 15.583 L 338.911 17.333 340.327 17.333 L 341.744 17.333 340.000 15.583 L 338.256 13.833 336.839 13.833 L 335.423 13.833 337.167 15.583 M346.667 15.583 L 348.411 17.333 349.247 17.329 L 350.083 17.325 348.305 15.579 C 346.544 13.851,346.518 13.833,345.724 13.833 L 344.923 13.833 346.667 15.583 M105.624 16.796 C 105.022 17.140,104.345 17.873,102.814 19.833 C 99.653 23.880,99.567 23.667,104.359 23.667 C 108.421 23.667,108.914 23.527,110.062 22.056 L 110.691 21.250 109.650 21.200 C 108.701 21.154,108.579 21.187,108.263 21.581 C 107.917 22.012,107.914 22.012,105.644 21.964 L 103.371 21.917 104.894 19.960 L 106.417 18.004 108.712 18.002 L 111.008 18.000 110.735 18.417 L 110.462 18.833 111.550 18.833 L 112.638 18.833 113.236 18.019 C 114.411 16.418,114.242 16.332,109.925 16.337 L 106.417 16.341 105.624 16.796 M113.155 19.792 C 111.669 21.694,110.380 23.344,110.290 23.458 C 110.162 23.620,110.368 23.667,111.216 23.667 L 112.306 23.667 114.931 20.292 C 116.375 18.435,117.667 16.785,117.804 16.625 C 118.036 16.352,117.983 16.333,116.954 16.333 L 115.856 16.333 113.155 19.792 M118.770 17.070 C 118.438 17.475,118.167 17.850,118.167 17.903 C 118.167 17.956,119.554 18.000,121.250 18.000 C 122.946 18.000,124.333 18.045,124.333 18.101 C 124.333 18.156,124.135 18.438,123.893 18.726 L 123.452 19.250 120.192 19.333 L 116.933 19.417 115.624 21.083 C 114.904 22.000,114.164 22.956,113.979 23.208 L 113.644 23.667 114.730 23.667 L 115.815 23.667 116.783 22.409 C 117.747 21.156,117.752 21.152,118.473 21.201 L 119.197 21.250 119.644 22.417 L 120.091 23.583 121.546 23.631 C 122.346 23.658,122.999 23.658,122.999 23.631 C 122.998 23.605,122.849 23.096,122.667 22.500 C 122.485 21.904,122.335 21.368,122.335 21.308 C 122.334 21.249,122.696 21.113,123.139 21.007 C 124.314 20.725,124.829 20.350,125.983 18.937 C 128.170 16.261,128.243 16.333,123.336 16.333 L 119.373 16.333 118.770 17.070 M128.787 17.042 C 128.011 18.008,124.680 22.270,124.098 23.042 L 123.627 23.667 127.610 23.667 L 131.593 23.667 132.204 22.875 L 132.815 22.083 129.966 22.000 L 127.117 21.917 127.573 21.375 C 128.026 20.838,128.042 20.833,129.556 20.826 L 131.083 20.819 131.716 19.999 L 132.348 19.179 130.845 19.131 L 129.342 19.083 129.766 18.542 L 130.191 18.000 133.080 18.000 L 135.969 18.000 136.667 17.167 L 137.364 16.333 133.360 16.333 L 129.356 16.333 128.787 17.042 M137.946 17.174 L 137.309 18.000 140.580 18.000 L 143.850 18.000 143.405 18.583 L 142.960 19.167 139.689 19.167 L 136.417 19.167 134.691 21.375 L 132.965 23.583 137.079 23.628 C 141.055 23.671,141.216 23.660,141.848 23.305 C 142.661 22.848,144.333 20.708,144.333 20.124 C 144.333 19.892,144.438 19.662,144.567 19.613 C 145.032 19.434,146.667 17.224,146.667 16.773 L 146.667 16.333 142.625 16.340 L 138.583 16.348 137.946 17.174 M149.250 16.648 C 148.423 17.032,148.162 17.314,145.764 20.404 C 143.076 23.867,142.966 23.704,147.957 23.634 L 151.609 23.583 152.293 23.130 C 153.313 22.454,157.199 17.411,157.133 16.847 L 157.083 16.417 153.500 16.377 C 150.303 16.342,149.845 16.371,149.250 16.648 M156.363 20.000 L 153.501 23.667 154.626 23.659 L 155.750 23.651 157.402 21.491 C 158.310 20.303,159.098 19.375,159.152 19.429 C 159.206 19.482,159.438 20.439,159.667 21.555 L 160.083 23.583 161.278 23.632 L 162.473 23.681 165.097 20.299 C 166.540 18.439,167.833 16.785,167.970 16.625 C 168.203 16.352,168.150 16.333,167.130 16.333 L 166.042 16.333 164.271 18.599 C 163.297 19.845,162.500 20.835,162.500 20.800 C 162.500 20.765,162.313 19.764,162.084 18.576 C 161.856 17.388,161.668 16.398,161.668 16.375 C 161.667 16.352,161.117 16.333,160.446 16.333 L 159.226 16.333 156.363 20.000 M154.231 18.208 C 154.163 18.323,153.479 19.223,152.710 20.208 L 151.312 22.000 149.059 22.000 C 147.763 22.000,146.829 21.935,146.861 21.847 C 146.892 21.763,147.572 20.863,148.373 19.847 L 149.830 18.000 152.091 18.000 C 153.855 18.000,154.326 18.046,154.231 18.208 M199.750 18.518 C 192.644 19.179,184.858 22.273,178.000 27.163 C 175.875 28.678,172.993 30.990,172.888 31.265 C 172.820 31.441,174.424 33.426,176.420 35.637 C 176.582 35.816,176.820 35.687,177.685 34.956 C 194.234 20.951,211.725 20.879,230.102 34.740 C 230.899 35.341,231.603 35.833,231.666 35.833 C 231.785 35.833,235.333 31.411,235.333 31.262 C 235.333 31.101,232.028 28.678,229.901 27.281 C 219.541 20.475,209.642 17.598,199.750 18.518 M208.815 20.080 C 216.333 21.161,224.515 24.815,232.375 30.601 C 233.558 31.472,233.541 31.434,233.054 32.052 L 232.692 32.513 230.138 30.778 C 211.718 18.263,194.380 18.325,177.427 30.968 L 175.438 32.452 175.022 31.958 L 174.606 31.463 175.327 30.857 C 182.829 24.544,191.560 20.712,200.583 19.769 C 201.951 19.627,206.982 19.816,208.815 20.080 M141.667 20.978 C 141.667 21.778,141.031 22.000,138.738 22.000 C 137.507 22.000,136.500 21.956,136.500 21.901 C 136.500 21.847,136.669 21.589,136.875 21.327 L 137.250 20.852 139.458 20.843 C 140.673 20.837,141.667 20.898,141.667 20.978 M201.000 31.271 C 194.778 32.055,186.488 36.054,182.601 40.144 L 182.119 40.651 184.081 42.831 L 186.042 45.010 186.563 44.586 C 198.469 34.893,208.793 34.672,220.871 43.855 C 221.578 44.393,222.192 44.833,222.235 44.833 C 222.315 44.833,225.684 40.734,225.887 40.389 C 226.154 39.937,220.418 36.093,216.979 34.419 C 211.857 31.926,205.592 30.692,201.000 31.271 M208.917 33.002 C 213.168 33.896,217.309 35.741,221.609 38.655 C 224.110 40.350,224.239 40.503,223.661 41.082 L 223.242 41.500 221.829 40.522 C 209.704 32.119,197.638 32.171,186.166 40.677 L 184.823 41.673 184.426 41.212 C 183.932 40.637,183.933 40.635,186.032 39.070 C 193.508 33.495,201.362 31.412,208.917 33.002 M60.333 43.006 L 68.250 50.827 100.093 50.872 L 131.935 50.917 127.921 56.083 L 123.906 61.250 106.370 61.292 C 96.725 61.316,88.833 61.292,88.833 61.240 C 88.833 61.189,90.145 59.463,91.749 57.406 L 94.664 53.667 80.291 53.675 L 65.917 53.683 62.806 57.717 C 61.095 59.935,57.687 64.337,55.231 67.500 C 52.775 70.662,47.784 77.094,44.139 81.792 L 37.511 90.333 51.881 90.323 L 66.250 90.313 71.726 83.232 C 74.738 79.337,77.264 76.173,77.341 76.200 C 77.417 76.228,82.579 81.294,88.811 87.458 L 100.142 98.667 117.612 98.660 L 135.083 98.653 124.286 87.910 L 113.489 77.167 126.800 77.167 L 140.112 77.167 141.776 75.042 C 142.691 73.873,149.953 64.517,157.912 54.250 C 165.872 43.983,172.457 35.490,172.546 35.375 C 172.675 35.208,160.654 35.168,112.562 35.175 L 52.417 35.184 60.333 43.006 M231.907 41.375 C 220.204 56.453,212.993 65.746,209.666 70.039 L 206.083 74.662 191.292 74.664 C 183.156 74.666,176.500 74.629,176.500 74.582 C 176.500 74.535,178.960 71.329,181.966 67.457 C 184.973 63.585,187.644 60.135,187.903 59.792 L 188.373 59.167 173.978 59.173 L 159.583 59.179 155.557 64.381 C 153.342 67.242,148.065 74.046,143.831 79.500 C 139.596 84.954,135.984 89.623,135.804 89.875 L 135.477 90.334 179.013 90.292 L 222.549 90.250 227.205 84.250 C 240.702 66.856,248.456 56.866,257.633 45.045 C 261.776 39.707,265.167 35.301,265.167 35.253 C 265.167 35.206,258.767 35.167,250.946 35.167 L 236.726 35.167 231.907 41.375 M267.159 39.377 C 265.368 41.690,258.547 50.483,252.002 58.917 C 245.457 67.350,238.152 76.762,235.769 79.833 C 233.386 82.904,230.653 86.429,229.695 87.667 C 228.738 88.904,227.881 90.010,227.790 90.125 C 227.659 90.291,230.517 90.333,241.964 90.333 L 256.303 90.333 262.932 81.792 C 279.269 60.744,283.514 55.270,285.159 53.132 L 286.917 50.847 304.291 50.840 L 321.665 50.833 319.563 53.542 C 318.407 55.031,316.588 57.389,315.522 58.781 L 313.583 61.313 298.250 61.325 L 282.917 61.338 276.814 69.210 L 270.711 77.083 285.937 77.167 L 301.164 77.250 296.088 83.792 L 291.013 90.333 305.381 90.325 L 319.750 90.316 321.758 87.700 C 322.863 86.261,327.944 79.702,333.049 73.124 C 338.155 66.547,346.505 55.784,351.607 49.208 C 356.708 42.631,361.253 36.781,361.705 36.208 L 362.529 35.167 316.473 35.168 L 270.417 35.170 267.159 39.377 M63.583 41.167 L 67.581 45.167 101.219 45.167 L 134.856 45.167 133.532 46.875 L 132.207 48.583 100.640 48.625 L 69.073 48.668 63.245 42.926 L 57.417 37.185 58.501 37.176 L 59.586 37.167 63.583 41.167 M167.706 38.208 C 167.254 38.781,164.789 41.950,162.229 45.250 C 159.669 48.550,153.428 56.594,148.360 63.125 L 139.145 75.000 124.778 75.000 L 110.411 75.000 108.667 73.250 L 106.923 71.500 122.283 71.500 L 137.643 71.500 142.791 64.875 C 150.975 54.342,156.578 47.117,160.556 41.968 L 164.250 37.185 166.389 37.176 L 168.529 37.167 167.706 38.208 M260.906 37.351 C 260.843 37.453,255.603 44.221,249.261 52.393 C 242.919 60.564,235.722 69.837,233.268 73.000 C 230.813 76.162,227.143 80.902,225.111 83.533 L 221.417 88.316 180.530 88.325 L 139.644 88.333 140.968 86.625 L 142.293 84.917 181.105 84.868 L 219.917 84.820 224.844 78.451 C 227.553 74.949,235.867 64.227,243.319 54.625 L 256.867 37.167 258.943 37.167 C 260.419 37.167,260.987 37.220,260.906 37.351 M358.167 37.245 C 358.167 37.307,340.799 59.723,320.685 85.622 L 318.583 88.328 306.950 88.331 C 297.121 88.333,295.337 88.298,295.450 88.104 C 295.523 87.978,296.108 87.193,296.750 86.360 L 297.917 84.845 307.502 84.839 L 317.087 84.833 324.750 74.958 C 328.965 69.527,335.790 60.733,339.918 55.417 C 344.045 50.100,348.920 43.819,350.751 41.458 L 354.080 37.167 356.123 37.167 C 357.247 37.167,358.167 37.202,358.167 37.245 M200.532 44.100 C 197.451 44.616,191.218 47.536,190.412 48.841 C 190.358 48.929,191.126 50.037,192.120 51.303 L 193.926 53.605 195.255 52.709 C 201.034 48.809,206.732 48.871,212.914 52.901 L 214.331 53.824 216.082 51.501 C 218.174 48.726,218.146 49.200,216.292 47.979 C 211.037 44.522,205.760 43.223,200.532 44.100 M206.445 45.336 C 209.050 45.759,212.213 46.997,214.794 48.605 L 216.004 49.360 215.661 49.841 C 215.172 50.528,215.197 50.528,213.945 49.816 C 207.156 45.951,200.112 45.955,193.822 49.824 L 193.025 50.315 192.589 49.742 L 192.152 49.170 193.284 48.439 C 197.402 45.784,202.214 44.649,206.445 45.336 M323.198 46.875 L 321.874 48.583 303.895 48.635 L 285.917 48.686 282.750 52.791 C 281.008 55.049,276.146 61.326,271.945 66.740 C 267.743 72.154,262.268 79.222,259.778 82.446 L 255.250 88.310 243.625 88.321 C 237.231 88.328,232.000 88.290,232.000 88.237 C 232.000 88.185,232.570 87.398,233.267 86.489 L 234.534 84.836 244.141 84.793 L 253.747 84.750 256.499 81.214 C 258.012 79.270,264.912 70.368,271.833 61.434 L 284.417 45.189 304.470 45.178 L 324.523 45.167 323.198 46.875 M201.833 55.592 C 198.953 56.494,197.389 60.093,198.686 62.833 C 201.157 68.055,208.748 66.421,208.750 60.667 C 208.751 56.925,205.407 54.472,201.833 55.592 M90.139 55.979 C 90.108 56.058,89.446 56.954,88.667 57.970 L 87.250 59.816 85.120 59.825 L 82.989 59.833 84.184 58.292 C 84.841 57.444,85.533 56.544,85.721 56.292 C 86.065 55.831,90.311 55.530,90.139 55.979 M205.599 57.259 C 206.696 57.937,207.371 59.045,207.451 60.299 L 207.512 61.250 207.188 60.663 C 205.512 57.624,201.451 57.672,199.859 60.750 L 199.515 61.417 199.507 60.865 C 199.464 57.642,202.915 55.599,205.599 57.259 M183.474 62.077 C 183.168 62.486,181.117 65.144,178.917 67.984 L 174.917 73.149 172.772 73.158 L 170.627 73.167 171.199 72.458 C 171.514 72.069,173.592 69.406,175.816 66.542 L 179.861 61.333 181.946 61.333 L 184.032 61.333 183.474 62.077 M96.415 89.989 L 99.413 93.000 112.918 93.000 L 126.423 93.000 128.167 94.750 L 129.911 96.500 115.414 96.495 L 100.917 96.490 88.996 84.682 L 77.074 72.873 71.079 80.602 L 65.083 88.330 53.450 88.332 C 43.621 88.333,41.837 88.298,41.950 88.104 C 42.023 87.978,42.608 87.193,43.250 86.360 L 44.417 84.845 54.002 84.839 L 63.586 84.833 69.585 77.104 L 75.583 69.374 84.500 78.176 C 89.404 83.017,94.766 88.333,96.415 89.989 M303.883 71.729 C 303.810 71.855,303.225 72.640,302.583 73.473 L 301.417 74.988 288.194 74.994 L 274.971 75.000 275.856 73.875 C 276.342 73.256,276.961 72.469,277.231 72.125 L 277.722 71.500 290.870 71.500 C 301.983 71.500,303.996 71.535,303.883 71.729 M26.999 112.242 C 31.013 116.265,31.092 116.333,31.768 116.333 L 32.456 116.333 28.387 112.292 C 24.486 108.417,24.289 108.248,23.617 108.200 L 22.917 108.150 26.999 112.242 M35.500 112.250 L 39.581 116.333 40.747 116.333 L 41.914 116.333 37.833 112.250 L 33.753 108.167 32.586 108.167 L 31.419 108.167 35.500 112.250 M43.581 112.259 L 47.746 116.333 49.581 116.325 L 51.417 116.317 47.268 112.242 L 43.118 108.167 41.268 108.176 L 39.417 108.184 43.581 112.259 M51.615 112.243 L 55.750 116.320 58.249 116.327 L 60.747 116.333 56.667 112.250 L 52.586 108.167 50.033 108.167 L 47.481 108.167 51.615 112.243 M59.667 112.250 L 63.747 116.333 66.997 116.333 L 70.247 116.333 66.167 112.250 L 62.086 108.167 58.836 108.167 L 55.586 108.167 59.667 112.250 M67.833 112.250 L 71.914 116.333 79.694 116.333 L 87.474 116.333 91.885 120.667 L 96.296 125.000 116.665 125.000 L 137.034 125.000 132.642 120.674 L 128.250 116.349 110.500 116.341 L 92.750 116.332 88.556 112.249 L 84.362 108.167 74.057 108.167 L 63.753 108.167 67.833 112.250 M174.167 112.250 L 178.247 116.333 157.833 116.333 L 137.419 116.333 141.750 120.667 L 146.081 125.000 238.499 124.995 L 330.917 124.990 322.464 116.578 L 314.012 108.167 242.049 108.167 L 170.086 108.167 174.167 112.250 M195.003 112.792 C 196.702 116.897,197.055 117.677,197.163 117.553 C 197.229 117.478,198.317 116.085,199.581 114.458 L 201.878 111.500 203.704 111.500 L 205.530 111.500 204.716 112.542 C 204.269 113.115,202.489 115.402,200.761 117.625 L 197.619 121.667 195.665 121.667 L 193.711 121.667 192.412 118.667 C 191.698 117.017,191.069 115.667,191.014 115.667 C 190.960 115.667,189.866 117.016,188.583 118.665 L 186.250 121.664 184.448 121.665 C 183.052 121.666,182.675 121.620,182.771 121.458 C 182.863 121.303,187.596 115.166,188.880 113.538 C 189.002 113.383,188.787 113.087,188.065 112.421 L 187.083 111.515 190.776 111.508 L 194.469 111.500 195.003 112.792 M220.564 111.708 C 220.497 111.823,220.106 112.348,219.696 112.875 L 218.951 113.833 214.066 113.833 L 209.182 113.833 208.577 114.625 L 207.972 115.417 210.493 115.463 L 213.014 115.509 212.132 116.665 L 211.250 117.822 208.661 117.828 L 206.071 117.833 205.527 118.542 L 204.982 119.250 209.800 119.333 L 214.617 119.417 213.718 120.542 L 212.818 121.667 206.139 121.667 C 200.820 121.667,199.492 121.624,199.621 121.458 C 199.709 121.344,201.488 119.056,203.573 116.375 L 207.365 111.500 214.025 111.500 C 219.308 111.500,220.661 111.543,220.564 111.708 M235.116 112.625 L 234.218 113.750 231.700 113.833 L 229.181 113.917 226.163 117.792 L 223.144 121.667 221.308 121.667 L 219.472 121.667 219.963 121.042 C 220.233 120.698,221.596 118.954,222.991 117.167 L 225.528 113.917 223.193 113.833 L 220.857 113.750 221.720 112.625 L 222.583 111.500 229.299 111.500 L 236.015 111.500 235.116 112.625 M241.164 111.875 C 241.162 112.081,241.017 113.599,240.841 115.247 C 240.665 116.895,240.550 118.272,240.584 118.307 C 240.619 118.341,241.238 117.954,241.960 117.445 L 243.272 116.520 243.649 114.302 C 243.857 113.082,244.063 111.952,244.108 111.792 C 244.193 111.487,248.164 111.324,248.169 111.625 C 248.170 111.694,247.971 113.195,247.727 114.961 C 247.483 116.727,247.326 118.215,247.379 118.267 C 247.431 118.320,249.724 116.816,252.475 114.926 L 257.476 111.489 259.384 111.536 L 261.292 111.583 253.954 116.625 L 246.617 121.667 244.789 121.667 L 242.961 121.667 243.077 120.583 C 243.141 119.987,243.141 119.500,243.078 119.500 C 243.015 119.500,242.259 119.987,241.398 120.583 L 239.833 121.667 237.979 121.667 L 236.124 121.667 236.218 121.042 C 236.270 120.698,236.511 118.504,236.754 116.167 C 236.997 113.829,237.224 111.823,237.259 111.708 C 237.393 111.269,241.167 111.430,241.164 111.875 M275.833 111.715 C 276.800 112.201,276.592 112.638,273.523 116.574 C 269.407 121.852,269.823 121.667,262.093 121.667 C 255.348 121.667,254.722 121.484,255.931 119.873 C 260.807 113.371,261.832 112.279,263.568 111.736 C 264.536 111.433,275.236 111.414,275.833 111.715 M292.764 111.915 C 293.119 112.456,293.105 112.484,291.396 114.674 C 289.420 117.207,288.570 117.756,286.118 118.083 L 285.320 118.189 285.638 118.720 C 286.224 119.697,287.167 121.448,287.167 121.558 C 287.167 121.618,286.086 121.667,284.764 121.667 L 282.362 121.667 281.246 119.917 L 280.130 118.167 278.940 118.172 L 277.750 118.176 276.417 119.921 L 275.083 121.665 273.278 121.666 C 272.285 121.666,271.497 121.607,271.528 121.534 C 271.558 121.462,272.589 120.112,273.819 118.534 L 276.054 115.667 281.422 115.667 L 286.789 115.667 287.394 114.889 C 287.727 114.462,288.000 114.049,288.000 113.973 C 288.000 113.896,285.634 113.833,282.742 113.833 L 277.483 113.833 278.367 112.676 L 279.250 111.518 285.871 111.509 L 292.492 111.500 292.764 111.915 M298.044 113.172 C 297.333 114.091,296.647 114.991,296.521 115.172 C 296.298 115.493,296.337 115.500,298.398 115.500 L 300.503 115.500 304.510 113.495 L 308.516 111.490 310.717 111.537 L 312.917 111.583 307.975 114.078 L 303.034 116.573 303.335 117.328 C 303.501 117.744,303.977 118.892,304.393 119.880 L 305.150 121.676 302.811 121.630 L 300.472 121.583 299.674 119.750 L 298.876 117.917 296.644 117.871 L 294.412 117.824 292.931 119.746 L 291.449 121.667 289.621 121.667 C 288.184 121.667,287.827 121.622,287.953 121.458 C 288.042 121.344,289.821 119.056,291.907 116.375 L 295.701 111.500 297.520 111.500 L 299.339 111.500 298.044 113.172 M263.063 115.375 C 262.411 116.223,261.450 117.460,260.929 118.125 L 259.981 119.333 263.865 119.324 L 267.750 119.315 269.750 116.720 C 270.850 115.293,271.775 114.060,271.806 113.979 C 271.836 113.898,270.166 113.833,268.056 113.834 L 264.250 113.834 263.063 115.375 " stroke="none" fill="#d7f928" fill-rule="evenodd"></path><path id="path1" d="M200.000 7.267 C 193.098 7.880,187.127 9.524,180.762 12.563 L 178.450 13.667 133.101 13.667 L 87.752 13.667 92.833 18.750 L 97.915 23.833 97.249 23.825 C 96.604 23.817,96.426 23.663,91.417 18.746 L 86.250 13.675 82.751 13.671 L 79.252 13.667 84.333 18.750 L 89.415 23.833 88.248 23.833 L 87.081 23.833 82.000 18.750 L 76.919 13.667 74.069 13.667 L 71.218 13.667 76.318 18.748 L 81.417 23.829 79.499 23.831 L 77.581 23.833 72.500 18.750 L 67.419 13.667 65.251 13.672 L 63.083 13.677 68.250 18.748 L 73.417 23.818 70.833 23.818 L 68.250 23.817 63.101 18.742 L 57.953 13.667 56.518 13.673 L 55.083 13.680 60.214 18.757 L 65.345 23.833 62.046 23.833 L 58.748 23.833 53.667 18.750 L 48.585 13.667 47.752 13.667 L 46.919 13.667 52.000 18.750 L 57.081 23.833 41.082 23.834 L 25.083 23.835 28.583 27.297 C 30.508 29.201,36.851 35.490,42.679 41.272 L 53.275 51.786 52.831 52.351 C 52.587 52.662,48.752 57.604,44.309 63.333 C 39.865 69.063,31.415 79.953,25.531 87.534 C 19.647 95.115,14.833 101.359,14.833 101.410 C 14.833 101.460,27.638 101.482,43.288 101.459 L 71.742 101.417 75.065 97.133 L 78.387 92.849 86.955 101.341 L 95.523 109.833 128.885 109.833 L 162.247 109.833 158.083 105.667 L 153.919 101.500 207.851 101.500 L 261.784 101.500 266.895 94.917 L 272.006 88.333 275.179 88.333 C 277.606 88.333,278.324 88.380,278.229 88.533 C 278.161 88.643,275.907 91.566,273.220 95.028 C 270.532 98.490,268.333 101.363,268.333 101.412 C 268.333 101.461,281.137 101.482,296.786 101.459 L 325.238 101.417 327.504 98.500 C 328.751 96.896,333.961 90.183,339.083 83.583 C 344.205 76.983,353.722 64.721,360.231 56.333 C 366.741 47.946,375.052 37.237,378.700 32.537 C 382.348 27.836,385.333 23.955,385.333 23.912 C 385.333 23.869,353.549 23.833,314.701 23.833 L 244.070 23.833 242.243 22.413 C 228.317 11.583,213.047 6.108,200.000 7.267 M207.083 10.842 C 218.273 11.803,229.139 16.580,240.549 25.555 L 242.917 27.417 310.513 27.500 L 378.110 27.583 373.190 33.917 C 368.740 39.644,351.221 62.216,340.332 76.250 C 337.985 79.275,333.227 85.406,329.760 89.875 L 323.455 98.000 299.478 98.000 C 286.290 98.000,275.500 97.956,275.500 97.903 C 275.500 97.849,277.547 95.168,280.050 91.944 C 282.552 88.721,284.811 85.802,285.069 85.458 L 285.540 84.833 277.895 84.839 L 270.250 84.844 265.167 91.418 L 260.083 97.993 202.751 97.996 L 145.419 98.000 149.583 102.167 L 153.747 106.333 125.361 106.333 L 96.974 106.333 87.543 97.000 C 82.356 91.867,78.068 87.671,78.014 87.675 C 77.961 87.680,76.125 90.005,73.935 92.842 L 69.953 98.000 45.977 98.000 C 32.790 98.000,22.000 97.957,22.000 97.904 C 22.000 97.851,25.736 92.995,30.302 87.112 C 45.203 67.913,48.498 63.668,53.249 57.544 L 57.933 51.504 48.592 42.199 C 43.454 37.080,38.012 31.681,36.500 30.200 L 33.750 27.507 99.583 27.497 L 165.417 27.487 167.667 25.559 C 180.435 14.616,193.637 9.687,207.083 10.842 M113.633 16.533 C 113.953 16.853,113.873 17.152,113.236 18.019 L 112.638 18.833 111.550 18.833 L 110.462 18.833 110.735 18.417 L 111.008 18.000 108.712 18.002 L 106.417 18.004 104.894 19.960 L 103.371 21.917 105.644 21.964 C 107.914 22.012,107.917 22.012,108.263 21.581 C 108.579 21.187,108.701 21.154,109.650 21.200 L 110.691 21.250 110.062 22.056 C 108.914 23.527,108.421 23.667,104.359 23.667 C 99.567 23.667,99.653 23.880,102.814 19.833 C 104.345 17.873,105.022 17.140,105.624 16.796 L 106.417 16.341 109.925 16.337 C 112.436 16.334,113.490 16.390,113.633 16.533 M117.804 16.625 C 117.667 16.785,116.375 18.435,114.931 20.292 L 112.306 23.667 111.216 23.667 C 110.368 23.667,110.162 23.620,110.290 23.458 C 110.380 23.344,111.669 21.694,113.155 19.792 L 115.856 16.333 116.954 16.333 C 117.983 16.333,118.036 16.352,117.804 16.625 M127.386 16.563 C 127.743 17.494,124.757 20.618,123.139 21.007 C 122.696 21.113,122.334 21.249,122.335 21.308 C 122.335 21.368,122.485 21.904,122.667 22.500 C 122.849 23.096,122.998 23.605,122.999 23.631 C 122.999 23.658,122.346 23.658,121.546 23.631 L 120.091 23.583 119.644 22.417 L 119.197 21.250 118.473 21.201 C 117.752 21.152,117.747 21.156,116.783 22.409 L 115.815 23.667 114.730 23.667 L 113.644 23.667 113.979 23.208 C 114.164 22.956,114.904 22.000,115.624 21.083 L 116.933 19.417 120.192 19.333 L 123.452 19.250 123.893 18.726 C 124.135 18.438,124.333 18.156,124.333 18.101 C 124.333 18.045,122.946 18.000,121.250 18.000 C 119.554 18.000,118.167 17.956,118.167 17.903 C 118.167 17.850,118.438 17.475,118.770 17.070 L 119.373 16.333 123.336 16.333 C 126.544 16.333,127.314 16.377,127.386 16.563 M136.667 17.167 L 135.969 18.000 133.080 18.000 L 130.191 18.000 129.766 18.542 L 129.342 19.083 130.845 19.131 L 132.348 19.179 131.716 19.999 L 131.083 20.819 129.556 20.826 C 128.042 20.833,128.026 20.838,127.573 21.375 L 127.117 21.917 129.966 22.000 L 132.815 22.083 132.204 22.875 L 131.593 23.667 127.610 23.667 L 123.627 23.667 124.098 23.042 C 124.680 22.270,128.011 18.008,128.787 17.042 L 129.356 16.333 133.360 16.333 L 137.364 16.333 136.667 17.167 M146.667 16.773 C 146.667 17.224,145.032 19.434,144.567 19.613 C 144.438 19.662,144.333 19.892,144.333 20.124 C 144.333 20.708,142.661 22.848,141.848 23.305 C 141.216 23.660,141.055 23.671,137.079 23.628 L 132.965 23.583 134.691 21.375 L 136.417 19.167 139.689 19.167 L 142.960 19.167 143.405 18.583 L 143.850 18.000 140.580 18.000 L 137.309 18.000 137.946 17.174 L 138.583 16.348 142.625 16.340 L 146.667 16.333 146.667 16.773 M157.133 16.847 C 157.199 17.411,153.313 22.454,152.293 23.130 L 151.609 23.583 147.957 23.634 C 142.966 23.704,143.076 23.867,145.764 20.404 C 149.124 16.075,148.647 16.323,153.500 16.377 L 157.083 16.417 157.133 16.847 M161.668 16.375 C 161.668 16.398,161.856 17.388,162.084 18.576 C 162.313 19.764,162.500 20.765,162.500 20.800 C 162.500 20.835,163.297 19.845,164.271 18.599 L 166.042 16.333 167.130 16.333 C 168.150 16.333,168.203 16.352,167.970 16.625 C 167.833 16.785,166.540 18.439,165.097 20.299 L 162.473 23.681 161.278 23.632 L 160.083 23.583 159.667 21.555 C 159.438 20.439,159.206 19.482,159.152 19.429 C 159.098 19.375,158.310 20.303,157.402 21.491 L 155.750 23.651 154.626 23.659 L 153.501 23.667 156.363 20.000 L 159.226 16.333 160.446 16.333 C 161.117 16.333,161.667 16.352,161.668 16.375 M148.373 19.847 C 147.572 20.863,146.892 21.763,146.861 21.847 C 146.829 21.935,147.763 22.000,149.059 22.000 L 151.312 22.000 152.710 20.208 C 153.479 19.223,154.163 18.323,154.231 18.208 C 154.326 18.046,153.855 18.000,152.091 18.000 L 149.830 18.000 148.373 19.847 M136.875 21.327 C 136.669 21.589,136.500 21.847,136.500 21.901 C 136.500 22.296,140.993 21.978,141.321 21.561 C 141.869 20.864,141.788 20.833,139.458 20.843 L 137.250 20.852 136.875 21.327 " stroke="none" fill="#fa0404" fill-rule="evenodd"></path><path id="path2" d="M63.245 42.926 L 69.073 48.668 100.640 48.625 L 132.207 48.583 133.532 46.875 L 134.856 45.167 101.219 45.167 L 67.581 45.167 63.583 41.167 L 59.586 37.167 58.501 37.176 L 57.417 37.185 63.245 42.926 M160.556 41.968 C 156.578 47.117,150.975 54.342,142.791 64.875 L 137.643 71.500 122.283 71.500 L 106.923 71.500 108.667 73.250 L 110.411 75.000 124.778 75.000 L 139.145 75.000 148.360 63.125 C 153.428 56.594,159.669 48.550,162.229 45.250 C 164.789 41.950,167.254 38.781,167.706 38.208 L 168.529 37.167 166.389 37.176 L 164.250 37.185 160.556 41.968 M243.319 54.625 C 235.867 64.227,227.553 74.949,224.844 78.451 L 219.917 84.820 181.105 84.868 L 142.293 84.917 140.968 86.625 L 139.644 88.333 180.530 88.325 L 221.417 88.316 225.111 83.533 C 227.143 80.902,230.813 76.162,233.268 73.000 C 235.722 69.837,242.919 60.564,249.261 52.393 C 255.603 44.221,260.843 37.453,260.906 37.351 C 260.987 37.220,260.419 37.167,258.943 37.167 L 256.867 37.167 243.319 54.625 M350.751 41.458 C 348.920 43.819,344.045 50.100,339.918 55.417 C 335.790 60.733,328.965 69.527,324.750 74.958 L 317.087 84.833 307.502 84.839 L 297.917 84.845 296.750 86.360 C 296.108 87.193,295.523 87.978,295.450 88.104 C 295.337 88.298,297.121 88.333,306.950 88.331 L 318.583 88.328 320.685 85.622 C 340.799 59.723,358.167 37.307,358.167 37.245 C 358.167 37.202,357.247 37.167,356.123 37.167 L 354.080 37.167 350.751 41.458 M271.833 61.434 C 264.912 70.368,258.012 79.270,256.499 81.214 L 253.747 84.750 244.141 84.793 L 234.534 84.836 233.267 86.489 C 232.570 87.398,232.000 88.185,232.000 88.237 C 232.000 88.290,237.231 88.328,243.625 88.321 L 255.250 88.310 259.778 82.446 C 262.268 79.222,267.743 72.154,271.945 66.740 C 276.146 61.326,281.008 55.049,282.750 52.791 L 285.917 48.686 303.895 48.635 L 321.874 48.583 323.198 46.875 L 324.523 45.167 304.470 45.178 L 284.417 45.189 271.833 61.434 M85.721 56.292 C 85.533 56.544,84.841 57.444,84.184 58.292 L 82.989 59.833 85.120 59.825 L 87.250 59.816 88.667 57.970 C 89.446 56.954,90.108 56.058,90.139 55.979 C 90.311 55.530,86.065 55.831,85.721 56.292 M175.816 66.542 C 173.592 69.406,171.514 72.069,171.199 72.458 L 170.627 73.167 172.772 73.158 L 174.917 73.149 178.917 67.984 C 181.117 65.144,183.168 62.486,183.474 62.077 L 184.032 61.333 181.946 61.333 L 179.861 61.333 175.816 66.542 M69.585 77.104 L 63.586 84.833 54.002 84.839 L 44.417 84.845 43.250 86.360 C 42.608 87.193,42.023 87.978,41.950 88.104 C 41.837 88.298,43.621 88.333,53.450 88.332 L 65.083 88.330 71.079 80.602 L 77.074 72.873 88.996 84.682 L 100.917 96.490 115.414 96.495 L 129.911 96.500 128.167 94.750 L 126.423 93.000 112.918 93.000 L 99.413 93.000 96.415 89.989 C 94.766 88.333,89.404 83.017,84.500 78.176 L 75.583 69.374 69.585 77.104 M277.231 72.125 C 276.961 72.469,276.342 73.256,275.856 73.875 L 274.971 75.000 288.194 74.994 L 301.417 74.988 302.583 73.473 C 303.225 72.640,303.810 71.855,303.883 71.729 C 303.996 71.535,301.983 71.500,290.870 71.500 L 277.722 71.500 277.231 72.125 " stroke="none" fill="#05dc04" fill-rule="evenodd"></path><path id="path3" d="M199.583 0.098 C 196.050 0.439,194.906 0.592,192.667 1.021 C 188.744 1.773,183.739 3.285,180.952 4.560 C 180.423 4.802,179.961 5.000,179.925 5.000 C 179.890 5.000,179.148 5.338,178.277 5.750 L 176.693 6.500 103.055 6.504 L 29.417 6.508 34.533 11.587 L 39.650 16.667 23.617 16.675 L 7.583 16.683 12.186 21.216 C 14.717 23.710,22.832 31.742,30.219 39.066 L 43.650 52.383 42.617 53.726 C 40.769 56.129,29.624 70.486,26.833 74.058 C 25.962 75.173,24.913 76.535,24.500 77.084 C 24.088 77.634,23.709 78.121,23.657 78.167 C 23.574 78.240,21.296 81.179,20.167 82.669 C 19.938 82.971,19.150 83.988,18.417 84.929 C 17.683 85.870,16.258 87.702,15.250 89.001 C 14.242 90.300,12.667 92.324,11.750 93.498 C 6.376 100.384,0.076 108.542,0.028 108.677 C -0.006 108.773,2.547 108.835,6.611 108.837 L 13.250 108.841 20.667 116.167 L 28.083 123.492 56.250 123.500 L 84.417 123.508 88.804 127.837 L 93.192 132.167 220.804 132.158 L 348.417 132.150 336.667 120.492 L 324.918 108.833 326.779 108.833 L 328.640 108.833 329.904 107.208 C 330.599 106.315,332.970 103.258,335.173 100.417 C 337.375 97.575,339.731 94.537,340.408 93.667 C 342.197 91.368,352.986 77.459,356.810 72.524 C 358.610 70.200,360.833 67.338,361.750 66.163 C 362.667 64.989,364.092 63.154,364.917 62.087 C 366.619 59.884,366.510 60.024,368.366 57.639 C 369.127 56.661,370.575 54.797,371.583 53.497 C 372.592 52.197,373.754 50.698,374.167 50.167 C 374.579 49.635,375.742 48.136,376.750 46.836 C 377.758 45.536,379.183 43.703,379.917 42.762 C 380.650 41.822,381.438 40.805,381.667 40.502 C 381.896 40.200,382.683 39.183,383.417 38.243 C 386.217 34.651,394.372 24.144,397.750 19.777 C 398.942 18.236,399.942 16.906,399.972 16.821 C 400.006 16.727,392.129 16.667,379.805 16.667 L 359.581 16.667 354.583 11.667 L 349.585 6.667 290.168 6.667 L 230.750 6.666 229.667 6.152 C 220.325 1.717,208.162 -0.731,199.583 0.098 M207.667 7.339 C 219.148 8.362,230.581 13.343,242.364 22.456 L 244.145 23.833 314.753 23.833 C 359.626 23.833,385.341 23.891,385.306 23.993 C 385.275 24.080,383.079 26.949,380.427 30.368 C 377.774 33.786,372.229 40.933,368.104 46.250 C 363.980 51.567,359.845 56.892,358.915 58.083 C 357.985 59.275,353.821 64.637,349.663 70.000 C 330.442 94.785,327.041 99.168,326.095 100.375 L 325.083 101.666 296.625 101.666 C 280.973 101.667,268.167 101.624,268.167 101.572 C 268.167 101.503,276.479 90.717,278.209 88.542 C 278.340 88.377,277.719 88.333,275.212 88.333 L 272.051 88.333 266.900 94.991 L 261.750 101.649 207.917 101.666 L 154.083 101.683 158.125 105.644 C 160.348 107.823,162.167 109.657,162.167 109.720 C 162.167 109.782,147.157 109.833,128.812 109.833 L 95.457 109.833 86.974 101.417 C 82.308 96.787,78.436 93.005,78.370 93.011 C 78.304 93.017,76.752 94.967,74.920 97.345 L 71.590 101.667 43.128 101.667 C 27.474 101.667,14.667 101.624,14.667 101.573 C 14.667 101.521,16.744 98.802,19.282 95.531 C 30.126 81.558,33.847 76.765,37.999 71.417 C 40.419 68.300,43.533 64.287,44.919 62.500 C 46.305 60.712,48.743 57.567,50.338 55.511 L 53.237 51.771 39.160 37.807 L 25.083 23.843 41.082 23.838 L 57.081 23.833 52.000 18.750 L 46.919 13.667 47.751 13.668 L 48.583 13.669 53.667 18.748 L 58.750 23.827 61.999 23.830 L 65.248 23.833 60.167 18.750 L 55.085 13.667 56.585 13.667 L 58.085 13.667 63.167 18.750 L 68.248 23.833 70.748 23.833 L 73.248 23.833 68.167 18.750 L 63.085 13.667 65.251 13.669 L 67.417 13.670 72.583 18.743 L 77.750 23.816 79.571 23.825 L 81.393 23.833 76.238 18.758 L 71.083 13.683 74.001 13.675 L 76.919 13.667 82.000 18.750 L 87.081 23.833 88.249 23.825 L 89.417 23.816 84.256 18.742 L 79.095 13.667 82.757 13.667 L 86.419 13.667 91.500 18.750 C 96.471 23.723,96.596 23.833,97.248 23.833 L 97.915 23.833 92.833 18.750 L 87.752 13.667 133.129 13.667 L 178.506 13.667 180.346 12.744 C 189.005 8.401,198.503 6.522,207.667 7.339 M199.843 10.856 C 188.716 11.769,178.506 16.425,167.861 25.439 L 165.427 27.500 99.672 27.508 L 33.917 27.517 45.958 39.486 L 58.000 51.455 57.696 51.853 C 57.139 52.582,43.376 70.327,31.599 85.500 C 23.202 96.318,22.224 97.585,22.102 97.792 C 22.005 97.958,26.820 98.000,45.948 97.998 L 69.917 97.996 73.917 92.832 C 76.117 89.992,77.981 87.668,78.060 87.668 C 78.139 87.667,82.398 91.829,87.525 96.917 L 96.848 106.167 125.214 106.167 L 153.581 106.167 149.500 102.084 L 145.420 98.000 202.749 97.959 L 260.077 97.917 265.222 91.292 L 270.366 84.667 278.026 84.667 C 283.927 84.667,285.658 84.712,285.563 84.866 C 285.495 84.976,283.255 87.882,280.585 91.324 C 277.914 94.767,275.673 97.677,275.605 97.792 C 275.505 97.958,280.318 97.999,299.448 97.997 L 323.417 97.995 324.677 96.372 C 325.371 95.480,329.341 90.362,333.501 85.000 C 337.661 79.637,344.438 70.900,348.563 65.583 C 352.687 60.267,356.822 54.942,357.752 53.750 C 358.682 52.558,362.845 47.196,367.003 41.833 C 371.160 36.471,375.336 31.092,376.281 29.880 C 377.226 28.669,378.000 27.637,378.000 27.589 C 378.000 27.540,347.622 27.500,310.493 27.500 L 242.987 27.500 241.118 26.026 C 226.792 14.721,213.276 9.754,199.843 10.856 M307.417 15.500 L 309.244 17.333 277.847 17.333 L 246.451 17.333 244.934 16.200 C 244.099 15.577,243.023 14.783,242.542 14.436 C 242.060 14.089,241.667 13.774,241.667 13.736 C 241.667 13.698,256.049 13.667,273.628 13.667 L 305.589 13.667 307.417 15.500 M315.917 15.500 L 317.744 17.333 314.161 17.333 L 310.578 17.333 308.750 15.500 L 306.922 13.667 310.506 13.667 L 314.089 13.667 315.917 15.500 M323.955 15.502 L 325.826 17.333 322.919 17.333 L 320.013 17.333 318.256 15.634 C 317.290 14.699,316.500 13.874,316.500 13.801 C 316.500 13.727,317.756 13.668,319.292 13.669 L 322.083 13.671 323.955 15.502 M332.039 15.496 L 333.917 17.325 331.664 17.329 L 329.411 17.333 327.705 15.622 C 326.767 14.681,326.000 13.856,326.000 13.789 C 326.000 13.722,326.937 13.667,328.081 13.667 L 330.162 13.667 332.039 15.496 M340.083 15.500 L 341.911 17.333 340.411 17.333 L 338.911 17.333 337.083 15.500 L 335.256 13.667 336.756 13.667 L 338.256 13.667 340.083 15.500 M348.250 15.500 L 350.078 17.333 349.161 17.333 L 348.244 17.333 346.539 15.622 C 344.571 13.647,344.580 13.667,345.628 13.667 C 346.417 13.667,346.434 13.679,348.250 15.500 M208.026 18.594 C 216.587 19.679,224.910 23.338,233.704 29.882 L 235.492 31.213 234.690 32.231 C 234.248 32.792,233.416 33.850,232.841 34.583 C 232.265 35.317,231.773 35.940,231.747 35.969 C 231.721 35.998,231.074 35.540,230.309 34.951 C 212.314 21.100,195.073 20.935,178.378 34.453 C 177.441 35.212,176.642 35.833,176.604 35.833 C 176.254 35.833,172.657 31.291,172.870 31.117 C 185.408 20.893,196.105 17.083,208.026 18.594 M207.854 31.410 C 213.277 32.228,219.342 35.025,224.750 39.203 C 226.205 40.327,226.253 40.068,224.091 42.729 L 222.265 44.977 221.216 44.152 C 209.609 35.031,198.028 34.978,187.370 43.998 C 185.869 45.268,186.542 45.679,182.299 40.899 C 181.989 40.551,181.996 40.542,183.536 39.263 C 191.175 32.919,199.668 30.177,207.854 31.410 M172.724 35.208 C 172.596 35.416,167.527 41.967,159.924 51.750 C 157.715 54.592,153.735 59.719,151.079 63.145 C 148.423 66.571,144.899 71.108,143.248 73.228 L 140.245 77.083 126.928 77.167 L 113.611 77.250 124.429 87.958 L 135.247 98.667 117.665 98.664 L 100.083 98.660 96.667 95.297 C 94.787 93.447,89.663 88.367,85.278 84.008 C 78.514 77.284,77.277 76.123,77.111 76.345 C 77.004 76.489,74.489 79.733,71.521 83.553 L 66.125 90.500 51.813 90.500 C 43.941 90.500,37.500 90.444,37.501 90.375 C 37.501 90.306,40.745 86.074,44.709 80.970 C 48.673 75.866,52.779 70.578,53.833 69.219 C 54.887 67.860,58.033 63.805,60.824 60.207 L 65.897 53.667 80.302 53.667 C 91.801 53.667,94.675 53.709,94.546 53.875 C 94.457 53.990,93.339 55.433,92.060 57.083 C 90.781 58.733,89.523 60.365,89.265 60.708 L 88.794 61.333 106.290 61.333 L 123.786 61.333 127.820 56.125 L 131.855 50.917 99.968 50.875 L 68.081 50.832 60.166 42.916 L 52.251 35.000 112.552 35.000 C 160.750 35.000,172.827 35.042,172.724 35.208 M265.306 35.156 C 265.275 35.242,263.864 37.099,262.170 39.281 C 260.475 41.464,257.546 45.237,255.661 47.667 C 253.775 50.096,248.828 56.471,244.668 61.833 C 240.508 67.196,235.637 73.470,233.844 75.777 C 232.050 78.083,228.746 82.339,226.500 85.235 L 222.417 90.500 178.865 90.500 C 144.069 90.500,135.339 90.458,135.438 90.292 C 135.552 90.100,140.757 83.372,148.084 73.944 C 149.734 71.821,152.988 67.627,155.315 64.625 L 159.545 59.167 173.939 59.167 C 181.856 59.167,188.333 59.206,188.333 59.255 C 188.333 59.303,187.942 59.847,187.465 60.463 C 186.987 61.079,185.548 62.933,184.266 64.583 C 179.238 71.058,176.897 74.092,176.775 74.292 C 176.673 74.458,179.636 74.500,191.379 74.500 L 206.112 74.500 207.775 72.375 C 208.690 71.206,212.055 66.875,215.254 62.750 C 218.452 58.625,223.805 51.725,227.149 47.417 C 230.493 43.108,234.021 38.555,234.989 37.298 L 236.750 35.014 251.056 35.007 C 259.894 35.003,265.340 35.060,265.306 35.156 M361.892 36.042 C 361.455 36.615,360.451 37.908,359.662 38.917 C 358.872 39.925,355.611 44.125,352.415 48.250 C 349.219 52.375,345.137 57.637,343.344 59.944 C 341.551 62.251,338.726 65.889,337.067 68.028 C 335.408 70.167,331.404 75.329,328.169 79.500 C 324.934 83.671,321.688 87.852,320.955 88.792 L 319.622 90.500 305.311 90.500 C 297.440 90.500,291.000 90.444,291.001 90.375 C 291.001 90.306,291.849 89.162,292.884 87.833 C 293.919 86.504,296.204 83.561,297.963 81.293 L 301.161 77.168 285.903 77.126 L 270.645 77.083 272.807 74.297 C 273.995 72.765,276.746 69.221,278.919 66.422 L 282.871 61.333 298.162 61.333 L 313.454 61.333 317.363 56.292 C 319.513 53.519,321.328 51.156,321.396 51.042 C 321.495 50.876,318.024 50.833,304.268 50.833 L 287.017 50.833 284.550 54.017 C 283.193 55.768,281.402 58.075,280.570 59.142 C 279.011 61.143,267.763 75.641,260.414 85.123 L 256.250 90.496 241.865 90.498 C 231.139 90.499,227.510 90.452,227.598 90.310 C 227.662 90.205,229.265 88.124,231.159 85.685 C 233.053 83.246,238.268 76.525,242.747 70.750 C 247.225 64.975,251.390 59.612,252.001 58.833 C 252.612 58.054,255.988 53.704,259.503 49.167 C 266.790 39.760,269.155 36.717,269.958 35.708 L 270.522 35.000 316.604 35.000 L 362.686 35.000 361.892 36.042 M208.667 44.389 C 211.473 45.154,213.471 46.079,216.194 47.873 L 217.971 49.044 217.444 49.754 C 215.020 53.019,214.404 53.822,214.316 53.827 C 214.261 53.831,213.661 53.466,212.983 53.017 C 206.842 48.951,201.290 48.816,195.559 52.595 C 194.665 53.185,193.879 53.611,193.812 53.542 C 193.745 53.473,192.906 52.405,191.946 51.168 L 190.201 48.920 191.302 48.117 C 196.554 44.288,203.124 42.878,208.667 44.389 M205.878 55.809 C 210.823 58.238,209.331 65.642,203.833 65.960 C 197.987 66.299,195.965 58.347,201.250 55.799 C 202.553 55.171,204.588 55.175,205.878 55.809 M28.493 112.249 L 32.583 116.331 31.833 116.332 L 31.083 116.332 26.917 112.256 L 22.750 108.181 23.576 108.174 L 24.403 108.167 28.493 112.249 M37.792 112.178 C 40.015 114.380,41.833 116.215,41.833 116.257 C 41.833 116.299,41.327 116.333,40.707 116.333 L 39.581 116.333 35.500 112.250 L 31.419 108.167 32.585 108.171 L 33.750 108.176 37.792 112.178 M47.333 112.250 L 51.414 116.333 49.497 116.333 L 47.581 116.333 43.500 112.250 L 39.419 108.167 41.336 108.167 L 43.253 108.167 47.333 112.250 M56.811 112.247 L 60.917 116.328 58.249 116.330 L 55.581 116.333 51.500 112.250 L 47.419 108.167 50.062 108.167 L 52.705 108.167 56.811 112.247 M65.992 112.042 C 68.147 114.173,69.972 116.010,70.047 116.125 C 70.154 116.289,69.497 116.333,66.942 116.333 L 63.701 116.333 59.559 112.257 L 55.417 108.181 58.745 108.174 L 62.074 108.167 65.992 112.042 M88.667 112.250 L 92.747 116.333 110.583 116.333 L 128.419 116.333 132.750 120.667 L 137.081 125.000 116.581 125.000 L 96.081 125.000 91.750 120.667 L 87.419 116.333 79.668 116.325 L 71.917 116.316 67.760 112.241 L 63.603 108.167 74.094 108.167 L 84.586 108.167 88.667 112.250 M322.567 116.592 L 331.050 125.000 238.567 124.994 L 146.083 124.987 141.702 120.660 L 137.320 116.333 157.785 116.333 L 178.250 116.333 174.083 112.257 L 169.917 108.182 242.000 108.183 L 314.083 108.184 322.567 116.592 M188.042 112.349 C 189.255 113.419,189.492 112.860,185.841 117.537 L 182.683 121.583 184.363 121.631 C 186.374 121.688,185.951 122.004,188.750 118.350 C 189.942 116.795,190.960 115.517,191.013 115.511 C 191.066 115.505,191.703 116.887,192.429 118.582 L 193.750 121.665 195.667 121.659 L 197.583 121.654 201.417 116.726 C 203.525 114.016,205.275 111.731,205.306 111.649 C 205.336 111.567,204.586 111.501,203.639 111.502 L 201.917 111.503 199.529 114.587 C 198.216 116.283,197.087 117.637,197.020 117.595 C 196.952 117.554,196.341 116.165,195.662 114.510 L 194.426 111.500 190.755 111.502 L 187.083 111.505 188.042 112.349 M203.460 116.585 L 199.503 121.667 206.144 121.667 L 212.786 121.667 213.650 120.542 L 214.514 119.417 209.660 119.372 L 204.807 119.328 205.502 118.497 L 206.198 117.667 208.741 117.667 L 211.284 117.667 212.059 116.681 C 212.485 116.138,212.833 115.651,212.833 115.597 C 212.833 115.544,211.746 115.500,210.417 115.500 C 209.088 115.500,208.000 115.459,208.000 115.410 C 208.000 115.360,208.244 114.988,208.542 114.583 L 209.083 113.846 214.000 113.833 L 218.917 113.819 219.583 112.962 C 219.950 112.491,220.348 111.969,220.468 111.803 C 220.677 111.512,220.432 111.500,214.051 111.502 L 207.417 111.503 203.460 116.585 M221.782 112.625 L 220.883 113.750 223.268 113.796 L 225.653 113.842 222.660 117.671 C 221.014 119.777,219.667 121.537,219.667 121.583 C 219.667 121.629,220.437 121.667,221.378 121.667 L 223.090 121.667 226.138 117.750 L 229.187 113.833 231.652 113.833 L 234.117 113.833 234.863 112.875 C 235.273 112.348,235.663 111.823,235.731 111.708 C 235.828 111.543,234.490 111.500,229.268 111.500 L 222.682 111.500 221.782 112.625 M237.268 112.125 C 237.217 112.469,236.985 114.550,236.753 116.750 C 236.522 118.950,236.308 120.956,236.279 121.208 L 236.224 121.667 237.969 121.667 L 239.714 121.667 241.428 120.500 C 243.227 119.276,243.363 119.205,243.259 119.542 C 243.223 119.656,243.150 120.181,243.096 120.708 L 242.997 121.667 244.769 121.667 L 246.540 121.667 253.878 116.625 L 261.216 111.583 259.379 111.536 L 257.542 111.489 252.425 115.010 C 249.611 116.947,247.288 118.505,247.262 118.474 C 247.221 118.423,247.842 113.410,248.060 112.042 L 248.146 111.500 246.174 111.500 L 244.201 111.500 243.940 112.958 C 243.796 113.760,243.595 114.904,243.494 115.500 L 243.310 116.583 241.905 117.552 C 240.249 118.693,240.369 119.019,240.836 114.667 C 241.017 112.971,241.166 111.565,241.166 111.542 C 241.166 111.519,240.311 111.500,239.265 111.500 L 237.363 111.500 237.268 112.125 M263.680 111.762 C 261.941 112.235,261.801 112.368,258.263 116.917 C 254.400 121.883,254.250 121.713,262.394 121.632 C 270.016 121.557,269.335 121.878,273.663 116.333 C 277.538 111.369,277.707 111.596,270.108 111.549 C 265.674 111.522,264.405 111.564,263.680 111.762 M278.515 112.580 C 278.049 113.174,277.667 113.699,277.667 113.746 C 277.667 113.794,280.029 113.833,282.917 113.833 C 285.804 113.833,288.167 113.877,288.167 113.930 C 288.167 113.984,287.888 114.377,287.547 114.805 C 287.207 115.233,286.901 115.621,286.867 115.667 C 286.834 115.712,284.359 115.787,281.367 115.833 L 275.929 115.917 273.718 118.750 L 271.507 121.583 273.116 121.631 C 275.142 121.692,274.882 121.836,276.481 119.764 L 277.843 118.000 278.963 118.000 L 280.083 118.001 281.250 119.833 L 282.417 121.666 284.805 121.666 L 287.194 121.667 286.408 120.208 C 285.976 119.406,285.557 118.679,285.478 118.592 C 285.131 118.212,285.346 118.000,286.076 118.000 C 288.061 118.000,289.388 117.151,291.371 114.612 C 293.871 111.413,294.027 111.500,285.776 111.500 L 279.364 111.500 278.515 112.580 M291.795 116.583 L 287.840 121.667 289.628 121.659 L 291.417 121.652 292.919 119.701 L 294.422 117.750 296.608 117.704 L 298.795 117.657 299.689 119.661 L 300.583 121.665 302.792 121.666 C 304.006 121.666,305.000 121.624,305.000 121.571 C 305.000 121.518,304.545 120.382,303.990 119.045 C 303.201 117.148,303.028 116.584,303.198 116.471 C 303.318 116.392,305.534 115.259,308.121 113.955 L 312.826 111.583 310.755 111.537 L 308.684 111.490 304.676 113.495 L 300.669 115.500 298.415 115.500 L 296.162 115.500 297.664 113.587 C 298.491 112.534,299.167 111.634,299.167 111.587 C 299.167 111.539,298.398 111.500,297.458 111.500 L 295.750 111.500 291.795 116.583 M271.801 114.137 C 271.681 114.304,270.721 115.541,269.667 116.887 L 267.750 119.333 263.867 119.333 C 260.722 119.333,260.009 119.292,260.117 119.117 C 260.190 118.997,261.136 117.760,262.219 116.367 L 264.189 113.833 268.104 113.833 C 271.859 113.833,272.010 113.846,271.801 114.137 " stroke="none" fill="#040404" fill-rule="evenodd"></path><path id="path4" d="M59.000 14.750 C 59.591 15.346,60.111 15.833,60.157 15.833 C 60.203 15.833,59.757 15.346,59.167 14.750 C 58.576 14.154,58.055 13.667,58.010 13.667 C 57.964 13.667,58.409 14.154,59.000 14.750 M306.583 14.833 C 307.128 15.383,307.610 15.833,307.656 15.833 C 307.702 15.833,307.294 15.383,306.750 14.833 C 306.206 14.283,305.723 13.833,305.677 13.833 C 305.631 13.833,306.039 14.283,306.583 14.833 M339.997 15.542 C 341.620 17.206,341.833 17.409,341.833 17.289 C 341.833 17.264,341.027 16.458,340.042 15.497 L 338.250 13.750 339.997 15.542 M345.750 14.833 C 346.294 15.383,346.777 15.833,346.823 15.833 C 346.869 15.833,346.461 15.383,345.917 14.833 C 345.372 14.283,344.890 13.833,344.844 13.833 C 344.798 13.833,345.206 14.283,345.750 14.833 M72.917 15.500 C 73.646 16.233,74.280 16.833,74.326 16.833 C 74.371 16.833,73.812 16.233,73.083 15.500 C 72.354 14.767,71.720 14.167,71.674 14.167 C 71.629 14.167,72.188 14.767,72.917 15.500 M87.833 15.213 C 87.833 15.238,88.415 15.819,89.125 16.504 L 90.417 17.750 89.171 16.458 C 88.014 15.259,87.833 15.091,87.833 15.213 M328.833 16.750 C 329.144 17.071,329.436 17.333,329.482 17.333 C 329.528 17.333,329.311 17.071,329.000 16.750 C 328.689 16.429,328.397 16.167,328.351 16.167 C 328.305 16.167,328.522 16.429,328.833 16.750 M69.250 19.833 C 69.979 20.567,70.613 21.167,70.659 21.167 C 70.705 21.167,70.146 20.567,69.417 19.833 C 68.688 19.100,68.054 18.500,68.008 18.500 C 67.962 18.500,68.521 19.100,69.250 19.833 M200.583 19.769 C 191.560 20.712,182.829 24.544,175.327 30.857 L 174.606 31.463 175.022 31.958 L 175.438 32.452 177.427 30.968 C 194.380 18.325,211.718 18.263,230.138 30.778 L 232.692 32.513 233.054 32.052 C 233.541 31.434,233.558 31.472,232.375 30.601 C 221.762 22.788,210.011 18.785,200.583 19.769 M76.250 22.500 C 76.979 23.233,77.613 23.833,77.659 23.833 C 77.705 23.833,77.146 23.233,76.417 22.500 C 75.688 21.767,75.054 21.167,75.008 21.167 C 74.962 21.167,75.521 21.767,76.250 22.500 M64.417 23.000 C 64.868 23.458,65.275 23.833,65.321 23.833 C 65.367 23.833,65.035 23.458,64.583 23.000 C 64.132 22.542,63.725 22.167,63.679 22.167 C 63.633 22.167,63.965 22.542,64.417 23.000 M37.250 31.000 C 37.794 31.550,38.277 32.000,38.323 32.000 C 38.369 32.000,37.961 31.550,37.417 31.000 C 36.872 30.450,36.390 30.000,36.344 30.000 C 36.298 30.000,36.706 30.450,37.250 31.000 M33.000 31.750 C 33.591 32.346,34.111 32.833,34.157 32.833 C 34.203 32.833,33.757 32.346,33.167 31.750 C 32.576 31.154,32.055 30.667,32.010 30.667 C 31.964 30.667,32.409 31.154,33.000 31.750 M200.667 32.670 C 195.619 33.372,190.915 35.429,186.032 39.070 C 183.933 40.635,183.932 40.637,184.426 41.212 L 184.823 41.673 186.166 40.677 C 197.638 32.171,209.704 32.119,221.829 40.522 L 223.242 41.500 223.661 41.082 C 224.239 40.503,224.110 40.350,221.609 38.655 C 214.602 33.906,207.131 31.771,200.667 32.670 M82.472 35.125 C 99.094 35.148,126.244 35.148,142.805 35.125 C 159.367 35.102,145.767 35.082,112.583 35.082 C 79.400 35.082,65.850 35.102,82.472 35.125 M241.833 35.122 C 255.117 35.237,265.333 35.238,265.333 35.125 C 265.333 35.056,258.902 35.018,251.042 35.039 C 243.181 35.061,239.037 35.098,241.833 35.122 M293.458 35.125 C 306.131 35.149,326.869 35.149,339.542 35.125 C 352.215 35.101,341.846 35.082,316.500 35.082 C 291.154 35.082,280.785 35.101,293.458 35.125 M64.583 47.333 C 65.772 48.525,66.783 49.500,66.829 49.500 C 66.874 49.500,65.939 48.525,64.750 47.333 C 63.561 46.142,62.551 45.167,62.505 45.167 C 62.459 45.167,63.394 46.142,64.583 47.333 M200.333 45.494 C 197.830 46.032,195.522 46.996,193.284 48.439 L 192.152 49.170 192.589 49.742 L 193.025 50.315 193.822 49.824 C 200.112 45.955,207.156 45.951,213.945 49.816 C 215.197 50.528,215.172 50.528,215.661 49.841 L 216.004 49.360 214.794 48.605 C 210.036 45.641,204.848 44.525,200.333 45.494 M56.500 50.083 C 57.091 50.679,57.611 51.167,57.657 51.167 C 57.703 51.167,57.257 50.679,56.667 50.083 C 56.076 49.487,55.555 49.000,55.510 49.000 C 55.464 49.000,55.909 49.487,56.500 50.083 M52.167 50.750 C 52.757 51.346,53.278 51.833,53.324 51.833 C 53.370 51.833,52.924 51.346,52.333 50.750 C 51.743 50.154,51.222 49.667,51.176 49.667 C 51.130 49.667,51.576 50.154,52.167 50.750 M201.910 56.971 C 200.519 57.621,199.486 59.295,199.507 60.865 L 199.515 61.417 199.859 60.750 C 201.451 57.672,205.512 57.624,207.188 60.663 L 207.512 61.250 207.451 60.299 C 207.283 57.661,204.285 55.861,201.910 56.971 M176.500 74.542 C 176.500 74.610,183.171 74.667,191.323 74.667 C 199.476 74.667,206.182 74.610,206.224 74.542 C 206.267 74.473,199.596 74.417,191.401 74.417 C 183.205 74.417,176.500 74.473,176.500 74.542 M115.164 78.875 C 116.786 80.539,117.000 80.742,117.000 80.622 C 117.000 80.597,116.194 79.791,115.208 78.830 L 113.417 77.083 115.164 78.875 M274.136 84.792 C 276.274 84.818,279.724 84.818,281.803 84.791 C 283.882 84.765,282.133 84.743,277.917 84.743 C 273.700 84.744,271.999 84.765,274.136 84.792 M88.667 87.417 C 89.810 88.563,90.782 89.500,90.828 89.500 C 90.874 89.500,89.976 88.563,88.833 87.417 C 87.690 86.271,86.718 85.333,86.672 85.333 C 86.626 85.333,87.524 86.271,88.667 87.417 M44.625 90.458 C 48.590 90.483,55.077 90.483,59.042 90.458 C 63.006 90.433,59.763 90.413,51.833 90.413 C 43.904 90.413,40.660 90.433,44.625 90.458 M157.042 90.458 C 169.027 90.482,188.640 90.482,200.625 90.458 C 212.610 90.435,202.804 90.415,178.833 90.415 C 154.862 90.415,145.056 90.435,157.042 90.458 M234.804 90.458 C 238.776 90.483,245.226 90.483,249.138 90.458 C 253.049 90.433,249.800 90.413,241.917 90.413 C 234.033 90.413,230.833 90.433,234.804 90.458 M298.125 90.458 C 302.090 90.483,308.577 90.483,312.542 90.458 C 316.506 90.433,313.262 90.413,305.333 90.413 C 297.404 90.413,294.160 90.433,298.125 90.458 M81.833 91.417 C 82.331 91.921,82.776 92.333,82.822 92.333 C 82.868 92.333,82.498 91.921,82.000 91.417 C 81.502 90.912,81.057 90.500,81.011 90.500 C 80.966 90.500,81.335 90.912,81.833 91.417 M132.917 96.500 C 134.106 97.692,135.116 98.667,135.162 98.667 C 135.208 98.667,134.272 97.692,133.083 96.500 C 131.894 95.308,130.884 94.333,130.838 94.333 C 130.792 94.333,131.728 95.308,132.917 96.500 M14.667 101.542 C 14.667 101.610,27.487 101.667,43.157 101.667 C 58.826 101.667,71.682 101.610,71.724 101.542 C 71.767 101.473,58.946 101.417,43.234 101.417 C 27.522 101.417,14.667 101.473,14.667 101.542 M268.167 101.542 C 268.167 101.610,280.987 101.667,296.657 101.667 C 312.326 101.667,325.182 101.610,325.224 101.542 C 325.267 101.473,312.446 101.417,296.734 101.417 C 281.022 101.417,268.167 101.473,268.167 101.542 M180.875 101.625 C 195.702 101.648,219.965 101.648,234.792 101.625 C 249.619 101.602,237.487 101.582,207.833 101.582 C 178.179 101.582,166.048 101.602,180.875 101.625 M111.125 106.292 C 118.940 106.316,131.727 106.316,139.542 106.292 C 147.356 106.268,140.963 106.248,125.333 106.248 C 109.704 106.248,103.310 106.268,111.125 106.292 M93.333 107.750 C 93.924 108.346,94.445 108.833,94.490 108.833 C 94.536 108.833,94.091 108.346,93.500 107.750 C 92.909 107.154,92.389 106.667,92.343 106.667 C 92.297 106.667,92.743 107.154,93.333 107.750 M44.083 109.167 C 44.628 109.717,45.110 110.167,45.156 110.167 C 45.202 110.167,44.794 109.717,44.250 109.167 C 43.706 108.617,43.223 108.167,43.177 108.167 C 43.131 108.167,43.539 108.617,44.083 109.167 M57.000 109.750 C 57.867 110.621,58.614 111.333,58.660 111.333 C 58.706 111.333,58.034 110.621,57.167 109.750 C 56.299 108.879,55.552 108.167,55.507 108.167 C 55.461 108.167,56.133 108.879,57.000 109.750 M170.750 109.000 C 171.201 109.458,171.608 109.833,171.654 109.833 C 171.700 109.833,171.368 109.458,170.917 109.000 C 170.465 108.542,170.058 108.167,170.013 108.167 C 169.967 108.167,170.299 108.542,170.750 109.000 M314.750 109.000 C 315.201 109.458,315.608 109.833,315.654 109.833 C 315.700 109.833,315.368 109.458,314.917 109.000 C 314.465 108.542,314.058 108.167,314.013 108.167 C 313.967 108.167,314.299 108.542,314.750 109.000 M87.583 111.333 C 88.772 112.525,89.783 113.500,89.829 113.500 C 89.874 113.500,88.939 112.525,87.750 111.333 C 86.561 110.142,85.551 109.167,85.505 109.167 C 85.459 109.167,86.394 110.142,87.583 111.333 M51.750 112.500 C 53.123 113.875,54.283 115.000,54.329 115.000 C 54.375 115.000,53.289 113.875,51.917 112.500 C 50.544 111.125,49.383 110.000,49.338 110.000 C 49.292 110.000,50.377 111.125,51.750 112.500 M29.250 113.167 C 30.439 114.358,31.449 115.333,31.495 115.333 C 31.541 115.333,30.606 114.358,29.417 113.167 C 28.228 111.975,27.217 111.000,27.171 111.000 C 27.126 111.000,28.061 111.975,29.250 113.167 M58.917 114.500 C 59.922 115.508,60.782 116.333,60.828 116.333 C 60.873 116.333,60.089 115.508,59.083 114.500 C 58.078 113.492,57.218 112.667,57.172 112.667 C 57.127 112.667,57.911 113.492,58.917 114.500 M46.250 115.000 C 46.979 115.733,47.613 116.333,47.659 116.333 C 47.705 116.333,47.146 115.733,46.417 115.000 C 45.688 114.267,45.054 113.667,45.008 113.667 C 44.962 113.667,45.521 114.267,46.250 115.000 M278.635 115.791 C 280.131 115.819,282.531 115.819,283.969 115.791 C 285.407 115.764,284.183 115.741,281.250 115.741 C 278.317 115.741,277.140 115.764,278.635 115.791 M91.331 120.208 C 93.419 122.337,93.667 122.576,93.667 122.456 C 93.667 122.432,92.635 121.401,91.375 120.164 L 89.083 117.917 91.331 120.208 M132.917 121.000 C 134.106 122.192,135.116 123.167,135.162 123.167 C 135.208 123.167,134.272 122.192,133.083 121.000 C 131.894 119.808,130.884 118.833,130.838 118.833 C 130.792 118.833,131.728 119.808,132.917 121.000 " stroke="none" fill="#554719" fill-rule="evenodd"></path><path id="path5" d="M86.993 14.375 C 87.684 15.111,87.833 15.243,87.833 15.118 C 87.833 15.091,87.477 14.735,87.042 14.326 L 86.250 13.583 86.993 14.375 M257.625 13.792 C 266.448 13.815,280.885 13.815,289.708 13.792 C 298.531 13.768,291.313 13.748,273.667 13.748 C 256.021 13.748,248.802 13.768,257.625 13.792 M308.699 13.791 C 309.679 13.820,311.329 13.820,312.366 13.791 C 313.402 13.762,312.600 13.738,310.583 13.738 C 308.567 13.738,307.719 13.762,308.699 13.791 M316.500 13.797 C 316.500 13.869,316.931 14.338,317.458 14.839 L 318.417 15.750 317.510 14.796 L 316.603 13.842 319.426 13.792 L 322.250 13.741 319.375 13.704 C 317.794 13.683,316.500 13.725,316.500 13.797 M327.049 13.790 C 327.671 13.823,328.646 13.822,329.215 13.790 C 329.784 13.757,329.275 13.731,328.083 13.731 C 326.892 13.732,326.426 13.758,327.049 13.790 M336.042 13.789 C 336.477 13.824,337.190 13.824,337.625 13.789 C 338.060 13.755,337.704 13.727,336.833 13.727 C 335.962 13.727,335.606 13.755,336.042 13.789 M345.208 13.786 C 345.460 13.824,345.873 13.824,346.125 13.786 C 346.377 13.748,346.171 13.717,345.667 13.717 C 345.162 13.717,344.956 13.748,345.208 13.786 M80.333 14.917 C 80.924 15.512,81.445 16.000,81.490 16.000 C 81.536 16.000,81.091 15.512,80.500 14.917 C 79.909 14.321,79.389 13.833,79.343 13.833 C 79.297 13.833,79.743 14.321,80.333 14.917 M347.493 16.542 C 347.902 16.977,348.258 17.333,348.285 17.333 C 348.410 17.333,348.278 17.184,347.542 16.493 L 346.750 15.750 347.493 16.542 M76.417 19.000 C 77.146 19.733,77.780 20.333,77.826 20.333 C 77.871 20.333,77.312 19.733,76.583 19.000 C 75.854 18.267,75.220 17.667,75.174 17.667 C 75.129 17.667,75.688 18.267,76.417 19.000 M72.917 19.167 C 73.646 19.900,74.280 20.500,74.326 20.500 C 74.371 20.500,73.812 19.900,73.083 19.167 C 72.354 18.433,71.720 17.833,71.674 17.833 C 71.629 17.833,72.188 18.433,72.917 19.167 M72.333 22.917 C 72.831 23.421,73.276 23.833,73.322 23.833 C 73.368 23.833,72.998 23.421,72.500 22.917 C 72.002 22.412,71.557 22.000,71.511 22.000 C 71.466 22.000,71.835 22.412,72.333 22.917 M34.667 28.417 C 35.165 28.921,35.609 29.333,35.655 29.333 C 35.701 29.333,35.331 28.921,34.833 28.417 C 34.335 27.912,33.891 27.500,33.845 27.500 C 33.799 27.500,34.169 27.912,34.667 28.417 M35.583 34.333 C 36.128 34.883,36.610 35.333,36.656 35.333 C 36.702 35.333,36.294 34.883,35.750 34.333 C 35.206 33.783,34.723 33.333,34.677 33.333 C 34.631 33.333,35.039 33.783,35.583 34.333 M54.083 47.667 C 54.812 48.400,55.446 49.000,55.492 49.000 C 55.538 49.000,54.979 48.400,54.250 47.667 C 53.521 46.933,52.887 46.333,52.841 46.333 C 52.795 46.333,53.354 46.933,54.083 47.667 M67.417 50.167 C 67.775 50.533,68.105 50.833,68.151 50.833 C 68.197 50.833,67.941 50.533,67.583 50.167 C 67.225 49.800,66.895 49.500,66.849 49.500 C 66.803 49.500,67.059 49.800,67.417 50.167 M208.872 60.667 C 208.872 60.987,208.906 61.119,208.948 60.958 C 208.990 60.798,208.990 60.535,208.948 60.375 C 208.906 60.215,208.872 60.346,208.872 60.667 M79.167 88.750 C 79.665 89.254,80.109 89.667,80.155 89.667 C 80.201 89.667,79.831 89.254,79.333 88.750 C 78.835 88.246,78.391 87.833,78.345 87.833 C 78.299 87.833,78.669 88.246,79.167 88.750 M92.500 91.250 C 92.998 91.754,93.443 92.167,93.489 92.167 C 93.534 92.167,93.165 91.754,92.667 91.250 C 92.169 90.746,91.724 90.333,91.678 90.333 C 91.632 90.333,92.002 90.746,92.500 91.250 M129.833 93.417 C 130.331 93.921,130.776 94.333,130.822 94.333 C 130.868 94.333,130.498 93.921,130.000 93.417 C 129.502 92.912,129.057 92.500,129.011 92.500 C 128.966 92.500,129.335 92.912,129.833 93.417 M78.667 93.213 C 78.667 93.238,79.248 93.819,79.958 94.504 L 81.250 95.750 80.004 94.458 C 78.847 93.259,78.667 93.091,78.667 93.213 M94.833 104.250 C 95.424 104.846,95.945 105.333,95.990 105.333 C 96.036 105.333,95.591 104.846,95.000 104.250 C 94.409 103.654,93.889 103.167,93.843 103.167 C 93.797 103.167,94.243 103.654,94.833 104.250 M64.583 109.167 C 65.128 109.717,65.610 110.167,65.656 110.167 C 65.702 110.167,65.294 109.717,64.750 109.167 C 64.206 108.617,63.723 108.167,63.677 108.167 C 63.631 108.167,64.039 108.617,64.583 109.167 M84.500 108.219 C 84.500 108.248,84.744 108.491,85.042 108.760 L 85.583 109.250 85.094 108.708 C 84.638 108.203,84.500 108.090,84.500 108.219 M161.326 108.875 C 161.735 109.310,162.091 109.667,162.118 109.667 C 162.243 109.667,162.111 109.517,161.375 108.826 L 160.583 108.083 161.326 108.875 M25.417 109.333 C 25.961 109.883,26.444 110.333,26.490 110.333 C 26.535 110.333,26.128 109.883,25.583 109.333 C 25.039 108.783,24.556 108.333,24.510 108.333 C 24.465 108.333,24.872 108.783,25.417 109.333 M94.500 108.885 C 94.500 108.914,94.744 109.158,95.042 109.427 L 95.583 109.917 95.094 109.375 C 94.638 108.870,94.500 108.757,94.500 108.885 M55.000 110.583 C 55.311 110.904,55.603 111.167,55.649 111.167 C 55.695 111.167,55.478 110.904,55.167 110.583 C 54.856 110.263,54.564 110.000,54.518 110.000 C 54.472 110.000,54.689 110.263,55.000 110.583 M25.667 111.083 C 25.978 111.404,26.270 111.667,26.315 111.667 C 26.361 111.667,26.144 111.404,25.833 111.083 C 25.522 110.763,25.230 110.500,25.185 110.500 C 25.139 110.500,25.356 110.763,25.667 111.083 M173.333 111.583 C 173.831 112.087,174.276 112.500,174.322 112.500 C 174.368 112.500,173.998 112.087,173.500 111.583 C 173.002 111.079,172.557 110.667,172.511 110.667 C 172.466 110.667,172.835 111.079,173.333 111.583 M59.917 112.667 C 60.646 113.400,61.280 114.000,61.326 114.000 C 61.371 114.000,60.812 113.400,60.083 112.667 C 59.354 111.933,58.720 111.333,58.674 111.333 C 58.629 111.333,59.188 111.933,59.917 112.667 M128.333 116.385 C 128.333 116.414,128.577 116.658,128.875 116.927 L 129.417 117.417 128.927 116.875 C 128.471 116.370,128.333 116.257,128.333 116.385 M137.833 116.917 C 138.144 117.237,138.436 117.500,138.482 117.500 C 138.528 117.500,138.311 117.237,138.000 116.917 C 137.689 116.596,137.397 116.333,137.351 116.333 C 137.305 116.333,137.522 116.596,137.833 116.917 M207.375 117.791 C 208.085 117.822,209.248 117.822,209.958 117.791 C 210.669 117.759,210.088 117.734,208.667 117.734 C 207.246 117.734,206.665 117.759,207.375 117.791 M295.542 117.790 C 296.160 117.822,297.173 117.822,297.792 117.790 C 298.410 117.758,297.904 117.732,296.667 117.732 C 295.429 117.732,294.923 117.758,295.542 117.790 M278.375 118.121 C 278.719 118.157,279.281 118.157,279.625 118.121 C 279.969 118.085,279.688 118.056,279.000 118.056 C 278.313 118.056,278.031 118.085,278.375 118.121 M328.083 122.167 C 328.812 122.900,329.446 123.500,329.492 123.500 C 329.538 123.500,328.979 122.900,328.250 122.167 C 327.521 121.433,326.887 120.833,326.841 120.833 C 326.795 120.833,327.354 121.433,328.083 122.167 M95.167 124.083 C 95.665 124.587,96.109 125.000,96.155 125.000 C 96.201 125.000,95.831 124.587,95.333 124.083 C 94.835 123.579,94.391 123.167,94.345 123.167 C 94.299 123.167,94.669 123.579,95.167 124.083 " stroke="none" fill="#2a2c08" fill-rule="evenodd"></path></g></svg>